<?xml version="1.0" encoding="UTF-8"?>
<svg width="500" height="400" viewBox="0 0 500 400" fill="none" xmlns="http://www.w3.org/2000/svg">
  <!-- Left Hand -->
  <path d="M150 250C150 250 140 270 150 290C160 310 180 320 200 320C220 320 240 310 250 290" stroke="#333" stroke-width="4" stroke-linecap="round"/>
  <path d="M140 270C140 270 120 280 120 300C120 320 140 330 160 330" stroke="#333" stroke-width="4" stroke-linecap="round"/>
  
  <!-- Right Hand -->
  <path d="M350 250C350 250 360 270 350 290C340 310 320 320 300 320C280 320 260 310 250 290" stroke="#333" stroke-width="4" stroke-linecap="round"/>
  <path d="M360 270C360 270 380 280 380 300C380 320 360 330 340 330" stroke="#333" stroke-width="4" stroke-linecap="round"/>
  
  <!-- Ring on finger -->
  <circle cx="250" cy="280" r="6" fill="#333"/>
  
  <!-- Hearts -->
  <path d="M220 240C220 240 200 220 180 220C160 220 150 240 150 260C150 280 180 300 200 320C220 300 250 280 250 260C250 240 240 220 220 240Z" fill="#333"/>
  <path d="M280 240C280 240 300 220 320 220C340 220 350 240 350 260C350 280 320 300 300 320C280 300 250 280 250 260C250 240 260 220 280 240Z" fill="#333"/>
</svg>
